<?xml version="1.0" encoding="UTF-8"?>
<!-- Generator: visioncortex VTracer 0.6.3 -->
<svg version="1.1" xmlns="http://www.w3.org/2000/svg" width="1280" height="922">
<path d="M0 0 C422.4 0 844.8 0 1280 0 C1280 304.26 1280 608.52 1280 922 C857.6 922 435.2 922 0 922 C0 617.74 0 313.48 0 0 Z " fill="#F9FCFE" transform="translate(0,0)"/>
<path d="M0 0 C0.92 0.3 1.84 0.59 2.79 0.9 C20.72 6.78 39.41 14.23 55 25 C55 25.66 55 26.32 55 27 C56.98 27.66 58.96 28.32 61 29 C57.22 30.26 56.51 29.54 53.03 27.81 C38.82 21.06 23.32 17.05 8 13.69 C6.97 13.46 5.94 13.23 4.89 12.99 C-16.99 8.43 -38.84 7.49 -61.12 7.62 C-62.48 7.63 -63.84 7.63 -65.19 7.64 C-84.63 7.7 -103.74 8.24 -123 11 C-125.54 11.33 -128.08 11.66 -130.62 12 C-218.23 23.81 -303.15 52.26 -394.56 81.88 C-445.06 98.24 -495.67 114.41 -547 128 C-547.99 128.26 -548.98 128.53 -550 128.8 C-599.27 141.82 -649.18 152.42 -700 157 C-701.04 157.1 -702.08 157.19 -703.16 157.29 C-714.88 158.23 -726.61 158.19 -738.37 158.19 C-741.96 158.19 -745.56 158.21 -749.16 158.22 C-768.22 158.27 -787.09 157.23 -805.94 154.25 C-807.01 154.08 -808.08 153.91 -809.19 153.74 C-835.33 149.42 -861.18 141.67 -885 130 C-885.81 129.6 -886.62 129.21 -887.45 128.8 C-907.06 119.12 -925.58 107.83 -942.19 93.55 C-943.96 92.03 -945.76 90.54 -947.57 89.05 C-959.22 79.35 -970.38 68.74 -980 57 C-980.47 56.44 -980.93 55.87 -981.41 55.29 C-988.23 47.06 -994.86 38.76 -1001 30 C-1000.34 29.34 -999.68 28.68 -999 28 C-998.02 28.75 -997.04 29.5 -996.03 30.27 C-919.15 88.74 -824.31 94.43 -688.42 81.65 C-607.94 70.63 -528.8 52.64 -449.61 34.86 C-370.4 17.07 -370.4 17.07 -336.69 10.38 C-335.33 10.1 -333.97 9.83 -332.62 9.56 C-245.41 -7.8 -153.45 -24.13 0 0 Z " fill="#01A451" transform="translate(1054,758)"/>
<path d="M0 0 C1.09 -0.01 2.19 -0.01 3.32 -0.02 C5.1 -0.02 5.1 -0.02 6.93 -0.02 C8.14 -0.03 9.36 -0.03 10.61 -0.03 C13.18 -0.04 15.76 -0.04 18.33 -0.04 C22.29 -0.04 26.24 -0.06 30.19 -0.08 C32.69 -0.08 35.18 -0.08 37.68 -0.09 C38.87 -0.09 40.06 -0.1 41.28 -0.11 C42.38 -0.1 43.48 -0.1 44.61 -0.1 C45.58 -0.1 46.55 -0.1 47.55 -0.1 C49.87 0.15 49.87 0.15 51.87 2.15 C52.44 4.4 52.44 4.4 52.92 7.34 C53.12 8.5 53.31 9.66 53.52 10.85 C53.68 11.82 53.68 11.82 53.84 12.8 C57.23 33.02 61.51 53.07 65.7 73.14 C68.45 86.34 71.19 99.54 73.77 112.77 C73.99 113.85 74.2 114.93 74.42 116.04 C74.61 117.04 74.8 118.04 75 119.06 C75.17 119.93 75.34 120.79 75.51 121.68 C75.88 124.21 75.93 126.6 75.87 129.15 C76.86 129.15 77.85 129.15 78.87 129.15 C92.17 76.44 92.17 76.44 104.86 23.59 C105.03 22.89 105.19 22.18 105.36 21.45 C106.15 18.07 106.93 14.69 107.7 11.3 C107.97 10.13 108.24 8.95 108.52 7.74 C108.76 6.71 109 5.67 109.24 4.6 C109.87 2.15 109.87 2.15 110.87 0.15 C132.32 0.15 153.77 0.15 175.87 0.15 C177.12 5.15 178.21 9.77 178.98 14.81 C179.17 16.08 179.37 17.34 179.57 18.65 C179.78 20.02 179.98 21.4 180.19 22.77 C180.41 24.22 180.63 25.67 180.86 27.12 C181.33 30.2 181.8 33.28 182.27 36.36 C183.49 44.39 184.73 52.42 185.97 60.45 C186.09 61.25 186.21 62.05 186.34 62.87 C188.47 76.68 190.65 90.47 192.92 104.26 C193.26 106.3 193.6 108.34 193.93 110.38 C194.38 113.17 194.84 115.96 195.31 118.75 C195.44 119.55 195.57 120.36 195.7 121.19 C196.33 124.86 197.11 127.88 198.87 131.15 C199.03 130.51 199.2 129.87 199.36 129.22 C203.67 112.57 208.59 96.19 213.95 79.85 C215.85 74.05 217.73 68.24 219.61 62.44 C220.23 60.53 220.85 58.62 221.47 56.71 C225.47 44.35 229.26 31.92 232.96 19.46 C234.27 15.08 235.61 10.71 237 6.36 C237.31 5.38 237.62 4.4 237.94 3.39 C238.87 1.15 238.87 1.15 240.87 0.15 C242.56 0.05 244.26 0.03 245.96 0.03 C247.55 0.03 247.55 0.03 249.18 0.03 C250.33 0.04 251.47 0.04 252.66 0.05 C253.83 0.05 255.01 0.05 256.21 0.05 C259.97 0.06 263.73 0.07 267.49 0.08 C270.04 0.09 272.58 0.09 275.13 0.1 C281.37 0.11 287.62 0.12 293.87 0.15 C295.21 4.64 294.43 7.46 292.95 11.86 C292.73 12.52 292.51 13.18 292.29 13.86 C291.55 16.08 290.8 18.29 290.05 20.49 C289.51 22.08 288.98 23.67 288.45 25.26 C287.01 29.58 285.55 33.9 284.1 38.21 C282.56 42.75 281.05 47.29 279.53 51.83 C276.64 60.45 273.74 69.07 270.84 77.69 C265.67 93.06 260.52 108.42 255.37 123.79 C253.56 129.17 251.76 134.55 249.94 139.93 C248.54 144.11 247.13 148.29 245.73 152.47 C245.46 153.25 245.2 154.04 244.93 154.85 C241.37 165.46 237.95 176.09 234.8 186.83 C232.96 193.05 232.96 193.05 231.87 194.15 C229.61 194.24 227.35 194.27 225.09 194.27 C224.38 194.28 223.67 194.28 222.94 194.28 C220.58 194.28 218.23 194.28 215.87 194.28 C214.24 194.28 212.61 194.28 210.98 194.28 C207.56 194.28 204.14 194.28 200.71 194.28 C196.32 194.27 191.93 194.27 187.54 194.28 C184.17 194.28 180.8 194.28 177.43 194.28 C175.81 194.28 174.19 194.28 172.57 194.28 C170.31 194.28 168.04 194.28 165.78 194.27 C164.49 194.27 163.2 194.27 161.87 194.27 C158.87 194.15 158.87 194.15 156.87 193.15 C156.14 190.41 156.14 190.41 155.46 186.68 C155.33 185.99 155.2 185.3 155.07 184.6 C154.64 182.28 154.22 179.96 153.81 177.65 C153.51 176 153.2 174.36 152.9 172.72 C152.24 169.14 151.59 165.56 150.94 161.97 C149.82 155.86 148.67 149.76 147.51 143.66 C139.68 102.08 139.68 102.08 137.87 82.15 C137.21 82.15 136.55 82.15 135.87 82.15 C135.82 82.7 135.77 83.26 135.72 83.83 C135.2 89.11 134.3 94.09 132.93 99.21 C132.63 100.36 132.63 100.36 132.32 101.53 C131.66 104.07 130.98 106.61 130.31 109.15 C130.07 110.03 129.84 110.91 129.6 111.82 C125.16 128.61 120.53 145.36 115.85 162.09 C115.31 164.02 114.77 165.95 114.23 167.88 C113.22 171.51 112.2 175.13 111.18 178.76 C110.72 180.4 110.72 180.4 110.25 182.07 C109.97 183.08 109.68 184.09 109.39 185.13 C109.02 186.44 109.02 186.44 108.64 187.78 C107.9 190.04 106.99 192.05 105.87 194.15 C96.78 194.19 87.68 194.23 78.59 194.25 C74.37 194.26 70.15 194.27 65.93 194.3 C61.86 194.32 57.78 194.33 53.71 194.34 C52.16 194.34 50.6 194.35 49.04 194.36 C46.87 194.37 44.7 194.37 42.52 194.37 C41.28 194.38 40.04 194.38 38.77 194.39 C35.87 194.15 35.87 194.15 33.87 192.15 C33.19 189.31 32.61 186.51 32.09 183.65 C31.75 181.82 31.4 179.98 31.05 178.15 C30.78 176.69 30.78 176.69 30.5 175.2 C27.09 156.92 23.34 138.73 19.31 120.58 C19.07 119.53 18.84 118.48 18.6 117.4 C17.67 113.23 16.74 109.06 15.81 104.89 C13.91 96.36 12.06 87.81 10.22 79.26 C7.24 65.37 4.18 51.5 1.06 37.65 C0.87 36.81 0.68 35.96 0.48 35.1 C-0.06 32.69 -0.61 30.28 -1.15 27.86 C-1.41 26.73 -1.41 26.73 -1.67 25.57 C-2.44 22.14 -3.24 18.71 -4.06 15.28 C-4.33 14.13 -4.61 12.98 -4.89 11.8 C-5.25 10.33 -5.25 10.33 -5.62 8.83 C-6.12 6.18 -6.3 3.83 -6.13 1.15 C-4.44 -0.54 -2.32 0.01 0 0 Z " fill="#263092" transform="translate(13.130615234375,509.854736328125)"/>
<path d="M0 0 C18.15 0 36.3 0 55 0 C57.99 9.58 60.92 19.04 63.41 28.74 C63.85 30.44 63.85 30.44 64.3 32.18 C64.92 34.55 65.53 36.92 66.14 39.29 C67.06 42.86 67.99 46.43 68.92 50 C71.52 60.06 74.11 70.13 76.43 80.26 C76.6 80.95 76.76 81.65 76.93 82.37 C77.88 86.64 78.14 90.63 78 95 C78.99 94.67 79.98 94.34 81 94 C81.97 91.95 81.97 91.95 82.62 89.38 C82.91 88.38 83.2 87.38 83.5 86.35 C83.81 85.24 84.12 84.14 84.44 83 C89.01 67.49 94.5 52.38 100.16 37.24 C101.03 34.91 101.91 32.57 102.78 30.23 C104.26 26.25 105.76 22.27 107.26 18.3 C107.83 16.77 108.41 15.25 108.98 13.72 C109.77 11.6 110.58 9.49 111.38 7.38 C111.84 6.17 112.3 4.96 112.77 3.71 C114 1 114 1 116 0 C117.66 -0.09 119.33 -0.12 121 -0.11 C122.56 -0.11 122.56 -0.11 124.15 -0.11 C125.28 -0.11 126.41 -0.1 127.57 -0.1 C128.72 -0.1 129.87 -0.09 131.06 -0.09 C134.75 -0.09 138.44 -0.08 142.12 -0.06 C144.62 -0.06 147.12 -0.05 149.61 -0.05 C155.74 -0.04 161.87 -0.02 168 0 C169.19 4.83 168.27 7.6 166.2 11.99 C165.89 12.68 165.57 13.36 165.26 14.07 C164.58 15.56 163.9 17.05 163.21 18.53 C161.73 21.73 160.27 24.95 158.82 28.16 C158.05 29.86 157.28 31.55 156.51 33.24 C152.32 42.45 148.28 51.72 144.25 61 C143.53 62.65 142.81 64.31 142.09 65.96 C136.48 78.85 130.93 91.76 125.42 104.69 C118.16 121.68 110.89 138.66 103.51 155.59 C100.17 163.27 100.17 163.27 96.94 170.99 C89.93 188.02 79.79 202.47 62.27 209.82 C41.81 217.21 18.82 216.26 -2.1 211.07 C-4.84 209.53 -5.03 207.98 -6 205 C-6.49 202.28 -6.92 199.59 -7.29 196.86 C-7.4 196.09 -7.51 195.32 -7.62 194.52 C-7.96 192.08 -8.29 189.63 -8.62 187.19 C-8.86 185.52 -9.09 183.86 -9.32 182.2 C-9.89 178.13 -10.45 174.07 -11 170 C-6.63 168.97 -4.35 169.28 -0.12 170.88 C4.3 172.44 8.29 173.64 13 174 C13.67 174.05 14.34 174.1 15.04 174.16 C21.95 174.45 29.2 173.55 35.04 169.63 C40.68 164.44 45.75 157.09 46.23 149.35 C46.15 144.72 44.95 140.75 43.46 136.39 C43.2 135.57 42.93 134.75 42.65 133.91 C41.76 131.21 40.85 128.51 39.94 125.81 C39.3 123.89 38.66 121.98 38.03 120.06 C36.7 116.05 35.36 112.04 34.02 108.03 C32.08 102.25 30.17 96.46 28.26 90.67 C21.31 69.64 14.17 48.69 6.83 27.79 C6.53 26.93 6.23 26.07 5.92 25.18 C5.36 23.6 4.8 22.01 4.24 20.43 C3.74 19 3.24 17.57 2.75 16.15 C2.22 14.64 1.67 13.13 1.11 11.64 C0.82 10.85 0.54 10.07 0.25 9.27 C-0.02 8.57 -0.28 7.87 -0.55 7.15 C-1 5 -1 5 0 0 Z " fill="#00ABE9" transform="translate(1106,556)"/>
<path d="M0 0 C11.35 10.25 17.29 25.4 19.31 40.25 C19.4 42.87 19.46 45.45 19.44 48.06 C19.43 49.12 19.43 49.12 19.43 50.19 C19.3 64.26 19.3 64.26 17.31 66.25 C14.24 66.35 11.19 66.38 8.11 66.36 C6.66 66.36 6.66 66.36 5.18 66.36 C1.98 66.36 -1.23 66.36 -4.44 66.35 C-6.66 66.35 -8.88 66.34 -11.1 66.34 C-16.95 66.34 -22.8 66.33 -28.65 66.32 C-34.61 66.31 -40.58 66.3 -46.54 66.3 C-58.26 66.29 -69.97 66.27 -81.69 66.25 C-81.7 67.69 -81.7 69.13 -81.71 70.58 C-81.71 71.38 -81.72 72.18 -81.72 73.01 C-81.64 78.53 -80.36 83.24 -76.8 87.52 C-65 98.62 -52.6 98.76 -37.18 98.61 C-27.01 98.3 -17.29 96.23 -7.42 93.88 C-3.2 92.9 1.06 92.07 5.31 91.25 C6.62 95.18 5.83 98.37 5.13 102.35 C5 103.14 4.87 103.93 4.73 104.74 C4.45 106.41 4.17 108.08 3.88 109.75 C3.44 112.3 3.01 114.86 2.58 117.42 C2.31 119.04 2.03 120.66 1.76 122.29 C1.63 123.05 1.5 123.82 1.37 124.61 C0.43 130.02 0.43 130.02 -0.69 132.25 C-2.79 132.83 -2.79 132.83 -5.59 133.29 C-7.13 133.54 -7.13 133.54 -8.7 133.8 C-9.81 133.97 -10.92 134.14 -12.06 134.31 C-13.19 134.49 -14.32 134.67 -15.48 134.85 C-25.22 136.3 -34.85 137.05 -44.69 137.25 C-45.66 137.28 -46.63 137.31 -47.63 137.34 C-50.32 137.38 -53 137.33 -55.69 137.25 C-56.69 137.22 -56.69 137.22 -57.72 137.2 C-84.62 136.4 -106.02 131.35 -125.43 111.46 C-137.38 97.37 -140.02 74.96 -138.69 57.25 C-136.14 35.99 -126.94 14.23 -110.41 0.2 C-100.23 -7.07 -88.87 -11.22 -76.69 -13.75 C-75.63 -13.97 -74.58 -14.2 -73.49 -14.43 C-49.04 -18.9 -19.9 -15.62 0 0 Z " fill="#263092" transform="translate(728.6875,570.75)"/>
<path d="M0 0 C6.8 6.76 11.12 15.4 11.59 25.01 C11.6 35.62 10.87 46.12 10 56.69 C8.41 76.43 7.35 96.13 6.89 115.93 C6.83 118.11 6.78 120.3 6.72 122.48 C6.69 123.75 6.66 125.02 6.63 126.32 C6.44 129.91 6 133.39 5.44 136.94 C-2.22 136.99 -9.87 137.02 -17.52 137.05 C-20.13 137.06 -22.73 137.07 -25.34 137.09 C-29.08 137.11 -32.82 137.12 -36.55 137.13 C-38.31 137.15 -38.31 137.15 -40.1 137.16 C-41.72 137.16 -41.72 137.16 -43.38 137.16 C-44.33 137.17 -45.29 137.17 -46.27 137.18 C-48.56 136.94 -48.56 136.94 -50.56 134.94 C-50.69 132.82 -50.69 132.82 -50.51 130.17 C-50.45 129.18 -50.39 128.19 -50.33 127.17 C-50.26 126.09 -50.18 125.01 -50.1 123.9 C-50.03 122.79 -49.96 121.69 -49.89 120.55 C-49.67 116.99 -49.43 113.43 -49.19 109.88 C-48.96 106.34 -48.73 102.81 -48.51 99.28 C-48.36 97.08 -48.22 94.88 -48.07 92.68 C-47.68 86.75 -47.49 80.88 -47.56 74.94 C-48.8 75.35 -50.03 75.77 -51.3 76.19 C-55.02 77.43 -58.75 78.64 -62.48 79.84 C-64.57 80.52 -66.66 81.2 -68.75 81.88 C-69.8 82.21 -70.86 82.54 -71.94 82.89 C-81.75 85.95 -81.75 85.95 -88.5 93.25 C-89.7 97.43 -89.82 99.77 -88.56 103.94 C-84.93 107.67 -81.96 108.82 -76.86 109.07 C-70.68 109.05 -64.69 108.76 -58.56 107.94 C-59.52 111.62 -60.54 115.28 -61.56 118.94 C-61.78 119.75 -62 120.57 -62.23 121.41 C-62.97 124.13 -63.73 126.85 -64.5 129.56 C-64.74 130.46 -64.98 131.37 -65.23 132.29 C-65.47 133.14 -65.71 133.98 -65.96 134.85 C-66.18 135.61 -66.39 136.38 -66.61 137.16 C-67.56 138.94 -67.56 138.94 -69.36 139.67 C-90.31 142.23 -113.74 142.97 -131.34 129.77 C-139.71 122.85 -144.13 113.72 -145.56 102.94 C-146.41 90.68 -142.44 79.75 -134.45 70.49 C-127.62 63.36 -120.32 58.83 -111.06 55.5 C-110.25 55.21 -109.45 54.91 -108.62 54.61 C-96.48 50.34 -83.89 47.47 -71.32 44.82 C-70.51 44.64 -69.7 44.47 -68.87 44.3 C-67.4 43.99 -65.92 43.69 -64.45 43.41 C-58.26 42.13 -52.17 40.35 -48.56 34.94 C-47.85 28.97 -47.85 28.97 -50.88 24 C-58.01 18.52 -70.45 20.28 -79.06 21.21 C-92.91 23.2 -106.15 27.77 -119.36 32.27 C-121.56 32.94 -121.56 32.94 -123.56 32.94 C-125.48 27.46 -123.69 21.56 -122.78 15.98 C-122.44 13.88 -122.13 11.78 -121.83 9.67 C-121.61 8.33 -121.4 6.99 -121.18 5.65 C-120.99 4.44 -120.8 3.22 -120.6 1.97 C-119.56 -1.06 -119.56 -1.06 -117.28 -2.9 C-114.63 -4.03 -112.23 -4.78 -109.41 -5.34 C-107.89 -5.65 -107.89 -5.65 -106.35 -5.95 C-104.72 -6.25 -104.72 -6.25 -103.06 -6.56 C-101.92 -6.78 -100.78 -6.99 -99.61 -7.21 C-71.03 -12.35 -25.02 -20.62 0 0 Z " fill="#263092" transform="translate(432.5625,567.0625)"/>
<path d="M0 0 C11.33 8.71 14.33 25.24 16.12 38.64 C19.27 67.54 17.05 97.15 13.08 125.84 C4.01 192.21 29.23 244 67.95 296.5 C69.61 298.69 71.28 300.88 72.98 303.04 C73.95 304.5 73.95 304.5 73.95 306.5 C74.94 306.83 75.93 307.16 76.95 307.5 C76.62 308.16 76.29 308.82 75.95 309.5 C72.32 307.1 68.69 304.7 65.07 302.3 C63.84 301.49 62.61 300.68 61.39 299.87 C46.2 289.85 31.81 278.96 18.36 266.68 C16.02 264.56 13.64 262.5 11.26 260.43 C7.82 257.38 4.77 254.18 1.8 250.66 C-0.31 248.2 -2.52 245.86 -4.74 243.5 C-14.77 232.47 -23.19 220.29 -30.83 207.52 C-31.71 206.07 -32.6 204.62 -33.5 203.18 C-37.19 197.2 -40.23 191.13 -42.99 184.68 C-43.42 183.69 -43.85 182.69 -44.29 181.66 C-54.52 157.42 -60.61 132.79 -62.05 106.5 C-62.12 105.41 -62.18 104.31 -62.24 103.19 C-62.99 71.94 -55.18 32.93 -33.05 9.5 C-24.31 0.38 -12.37 -7.01 0 0 Z " fill="#263092" transform="translate(675.0546875,46.50390625)"/>
<path d="M0 0 C4.77 5.26 7.36 10.4 7.49 17.6 C6.17 40.88 -12.59 61.28 -29.35 76.28 C-34.03 80.39 -38.8 84.38 -43.62 88.31 C-51.73 94.96 -59.69 101.76 -67.56 108.69 C-68.92 109.87 -68.92 109.87 -70.3 111.08 C-81.59 121.08 -91.66 131.52 -100.56 143.69 C-100.99 144.26 -101.41 144.84 -101.85 145.43 C-124.58 176.58 -131.62 213.39 -133.88 251.16 C-134.24 256.92 -134.96 262.14 -136.56 267.69 C-136.89 266.7 -137.22 265.71 -137.56 264.69 C-138.22 264.69 -138.88 264.69 -139.56 264.69 C-155.92 224.96 -156.88 180.91 -152.56 138.69 C-152.47 137.8 -152.38 136.9 -152.29 135.99 C-148.93 105.31 -137.41 74.27 -118.56 49.69 C-117.96 48.9 -117.36 48.1 -116.74 47.29 C-96.12 20.82 -67.71 -0.2 -33.99 -5.92 C-22.56 -7.23 -9.63 -7.29 0 0 Z " fill="#263092" transform="translate(873.5625,24.3125)"/>
<path d="M0 0 C27.1 19.02 39.97 58.61 52.29 87.65 C62.24 111.06 74.45 131.42 92 150 C92.69 150.75 93.39 151.5 94.11 152.27 C114.46 173.47 142.72 187.45 170.38 196.36 C175.67 198.08 180.37 199.87 185 203 C185.33 203.99 185.66 204.98 186 206 C184.28 207.72 181.97 207.37 179.62 207.56 C178.65 207.65 177.67 207.73 176.66 207.82 C119.01 210.71 50.79 189.53 7.61 151 C4.83 148.48 2.1 145.91 -0.61 143.32 C-1.77 142.22 -2.95 141.14 -4.14 140.06 C-29.19 116.58 -44.49 80.47 -46.12 46.4 C-46.48 31.05 -43.43 12.97 -32.88 1.12 C-22.8 -8.08 -10.91 -7 0 0 Z " fill="#00ABE9" transform="translate(584,189)"/>
<path d="M0 0 C1.23 0 2.46 0.01 3.73 0.01 C16.52 0.16 27.39 1.8 39.44 6.31 C40.43 24.63 40.43 24.63 41.44 43.31 C32.44 41.31 32.44 41.31 28.06 40.19 C20.28 38.51 12.52 38.2 5.25 41.84 C1.91 44.55 1.04 48.18 0.44 52.31 C0.44 53.96 0.44 55.61 0.44 57.31 C10.67 57.64 20.9 57.97 31.44 58.31 C32.73 60.9 32.48 62.6 32.35 65.48 C32.31 66.54 32.26 67.6 32.22 68.69 C32.14 70.36 32.14 70.36 32.06 72.06 C32.02 73.13 31.97 74.19 31.93 75.29 C31.58 83.32 31.01 91.29 30.44 99.31 C20.87 99.31 11.3 99.31 1.44 99.31 C1.32 101.94 1.21 104.56 1.09 107.26 C0.7 115.97 0.31 124.69 -0.08 133.4 C-0.31 138.68 -0.55 143.95 -0.78 149.23 C-1 154.33 -1.23 159.44 -1.46 164.54 C-1.55 166.48 -1.63 168.41 -1.72 170.35 C-2.18 181.02 -2.72 191.67 -3.56 202.31 C-10.98 202.34 -18.39 202.35 -25.81 202.36 C-29.25 202.37 -32.69 202.38 -36.13 202.39 C-40.09 202.4 -44.04 202.41 -48 202.41 C-49.86 202.42 -49.86 202.42 -51.76 202.43 C-53.47 202.43 -53.47 202.43 -55.22 202.43 C-56.23 202.43 -57.24 202.43 -58.28 202.43 C-60.56 202.31 -60.56 202.31 -61.56 201.31 C-61.54 199.53 -61.45 197.75 -61.33 195.97 C-61.25 194.79 -61.17 193.61 -61.09 192.39 C-61.05 191.74 -61 191.09 -60.95 190.42 C-60.81 188.34 -60.67 186.26 -60.54 184.18 C-60.33 181.03 -60.13 177.88 -59.92 174.72 C-59.3 165.41 -58.72 156.1 -58.14 146.79 C-58.01 144.62 -57.87 142.46 -57.73 140.29 C-56.87 126.95 -56.37 113.69 -56.56 100.31 C-58.14 100.25 -58.14 100.25 -59.76 100.2 C-67.3 99.92 -67.3 99.92 -70.56 99.31 C-73.37 95.76 -72.67 91.6 -72.39 87.34 C-72.35 86.57 -72.31 85.8 -72.26 85.01 C-72.17 83.4 -72.07 81.78 -71.97 80.17 C-71.81 77.69 -71.68 75.21 -71.55 72.73 C-71.45 71.16 -71.36 69.59 -71.27 68.02 C-71.21 66.91 -71.21 66.91 -71.15 65.77 C-70.79 60.54 -70.79 60.54 -68.56 58.31 C-66.68 58.09 -66.68 58.09 -64.43 58.12 C-63.62 58.12 -62.82 58.13 -61.99 58.14 C-61.15 58.15 -60.3 58.17 -59.44 58.19 C-58.16 58.2 -58.16 58.2 -56.86 58.21 C-54.76 58.24 -52.66 58.27 -50.56 58.31 C-50.6 57.13 -50.63 55.94 -50.67 54.72 C-50.97 40.09 -51.16 23.93 -40.85 12.39 C-29.48 1.49 -15.04 -0.07 0 0 Z " fill="#00ABE9" transform="translate(974.5625,498.6875)"/>
<path d="M0 0 C3.17 1.41 5.32 3.1 7.81 5.5 C14.03 11.12 20.91 15.57 28 20 C28.61 20.38 29.21 20.77 29.84 21.16 C64.81 42.93 107.61 50.61 147.41 58.77 C148.57 59.01 149.72 59.24 150.91 59.49 C156.58 60.65 162.26 61.8 167.94 62.93 C187.49 66.86 207 71.51 225.56 78.94 C227.18 79.57 227.18 79.57 228.83 80.22 C236.84 83.42 244.59 86.95 252.18 91.03 C254.09 92.05 256.02 93.02 257.95 93.99 C265.67 97.91 272.51 102.23 279 108 C279.93 108.81 280.85 109.61 281.81 110.45 C287.31 115.32 292.36 120.3 297 126 C297.82 126.97 298.64 127.94 299.48 128.94 C316.77 149.79 328.15 173.47 327 201 C318.42 194.07 311.64 185.97 305.12 177.12 C272.99 133.72 222.45 119.84 171.1 112.11 C168.67 111.76 166.25 111.4 163.83 111.04 C112.83 103.55 56.57 95.26 22.31 52.27 C17.9 46.24 14.41 39.63 11 33 C10.52 32.08 10.04 31.15 9.54 30.2 C5.33 21.56 0 9.73 0 0 Z " fill="#01A451" transform="translate(562,352)"/>
<path d="M0 0 C-0.12 4.31 -0.24 8.61 -0.37 12.92 C-0.42 14.38 -0.46 15.84 -0.5 17.3 C-0.56 19.41 -0.62 21.52 -0.68 23.63 C-0.72 24.9 -0.76 26.17 -0.79 27.47 C-0.98 30.72 -1.4 33.81 -2 37 C-1.07 37.02 -0.14 37.04 0.81 37.06 C4.25 37.14 7.69 37.22 11.13 37.32 C12.62 37.36 14.11 37.39 15.6 37.42 C17.74 37.47 19.88 37.53 22.02 37.59 C23.31 37.62 24.6 37.65 25.93 37.68 C29 38 29 38 31 40 C31.15 42.98 31.15 42.98 31.01 46.77 C30.98 47.77 30.98 47.77 30.94 48.8 C30.89 50.22 30.84 51.64 30.78 53.07 C30.69 55.23 30.61 57.39 30.54 59.55 C30.32 65.47 29.98 71.14 29 77 C13.16 77.5 13.16 77.5 -3 78 C-3.37 88 -3.71 98 -4 108 C-4.03 109.1 -4.06 110.2 -4.1 111.34 C-4.17 114.16 -4.21 116.99 -4.25 119.81 C-4.27 120.62 -4.29 121.43 -4.31 122.26 C-4.35 127.88 -3.38 132.88 -1 138 C2.88 141.65 7.84 142.03 13 142 C18.36 141.56 23.68 140.79 29 140 C30.25 144.42 29.69 148.18 28.86 152.6 C28.66 153.68 28.66 153.68 28.46 154.78 C28.19 156.29 27.91 157.8 27.62 159.31 C27.19 161.62 26.77 163.94 26.36 166.25 C26.09 167.72 25.82 169.19 25.54 170.66 C25.42 171.35 25.29 172.05 25.17 172.76 C24.53 176.09 23.91 178.13 22 181 C3.93 186.86 -24.2 188.57 -42.06 181.25 C-43.4 180.54 -44.71 179.79 -46 179 C-46.79 178.54 -47.58 178.09 -48.39 177.62 C-56.28 172.76 -59.83 166.89 -62 158 C-63.37 148.71 -62.83 139.53 -62.19 130.21 C-62.09 128.72 -62 127.24 -61.91 125.76 C-61.66 121.9 -61.41 118.04 -61.16 114.18 C-60.75 107.96 -60.34 101.74 -59.95 95.52 C-59.81 93.36 -59.67 91.19 -59.52 89.02 C-59.4 87.07 -59.4 87.07 -59.27 85.07 C-59.19 83.92 -59.12 82.77 -59.04 81.58 C-59.03 80.73 -59.01 79.88 -59 79 C-60.55 77.45 -62.07 77.8 -64.22 77.72 C-65.07 77.68 -65.92 77.64 -66.79 77.61 C-67.69 77.57 -68.58 77.54 -69.5 77.5 C-71.26 77.43 -73.02 77.36 -74.78 77.28 C-75.96 77.24 -75.96 77.24 -77.16 77.19 C-79 77 -79 77 -80 76 C-80.1 74.46 -80.13 72.91 -80.13 71.36 C-80.13 70.4 -80.14 69.44 -80.14 68.44 C-80.13 67.41 -80.13 66.38 -80.12 65.31 C-80.12 64.27 -80.12 63.23 -80.11 62.16 C-80 44.67 -80 44.67 -79 39 C-76.5 37.75 -74.79 37.89 -71.99 37.9 C-71.01 37.91 -70.02 37.91 -69 37.91 C-67.97 37.92 -66.94 37.93 -65.88 37.94 C-64.31 37.94 -64.31 37.94 -62.72 37.95 C-60.15 37.96 -57.57 37.98 -55 38 C-54.97 37.36 -54.95 36.73 -54.92 36.08 C-54.81 33.18 -54.69 30.28 -54.56 27.38 C-54.52 26.38 -54.48 25.38 -54.44 24.35 C-54.23 19.49 -53.97 14.78 -53 10 C-39.36 6.4 -25.58 3.5 -11.77 0.6 C-9.1 0.06 -9.1 0.06 -6.94 -0.64 C-4.43 -1.11 -2.46 -0.61 0 0 Z " fill="#263092" transform="translate(546,523)"/>
<path d="M0 0 C1.1 -0 2.2 -0.01 3.33 -0.01 C5.11 -0.01 5.11 -0.01 6.93 -0 C8.15 -0 9.36 -0.01 10.61 -0.01 C13.19 -0.01 15.76 -0.01 18.33 -0 C22.29 0 26.24 -0 30.2 -0.01 C32.69 -0.01 35.19 -0.01 37.68 -0 C38.87 -0.01 40.06 -0.01 41.29 -0.01 C42.93 -0 42.93 -0 44.61 0 C46.06 0 46.06 0 47.55 0 C49.74 0.13 49.74 0.13 50.74 1.13 C50.77 2.74 50.73 4.35 50.67 5.95 C50.62 6.97 50.58 7.98 50.54 9.03 C50.46 10.68 50.46 10.68 50.38 12.37 C50.34 13.51 50.29 14.64 50.24 15.81 C49.81 25.36 49.23 34.88 48.61 44.41 C47.03 68.91 45.87 93.42 44.75 117.93 C44.62 120.78 44.49 123.62 44.35 126.46 C43.31 149.01 42.41 171.56 41.74 194.13 C22.6 194.13 3.46 194.13 -16.26 194.13 C-17.75 191.16 -17.12 188.76 -16.84 185.45 C-16.72 183.95 -16.6 182.44 -16.48 180.94 C-16.42 180.11 -16.35 179.29 -16.28 178.44 C-14.54 156.61 -13.34 134.75 -12.2 112.88 C-12.15 112.06 -12.11 111.24 -12.07 110.39 C-10.67 83.65 -9.59 56.91 -8.86 30.14 C-8.82 28.92 -8.79 27.71 -8.75 26.45 C-8.69 24.22 -8.63 21.98 -8.58 19.75 C-8.18 5.45 -8.18 5.45 -7.26 1.13 C-4.7 -0.15 -2.87 0 0 0 Z " fill="#00ABE9" transform="translate(1038.260009765625,506.87060546875)"/>
<path d="M0 0 C0.95 2.85 1.19 4.87 1.32 7.84 C1.38 9.3 1.38 9.3 1.44 10.79 C1.48 11.83 1.52 12.87 1.56 13.94 C1.6 15 1.65 16.06 1.69 17.16 C2.06 27.11 2.1 37.04 2 47 C0.46 46.76 0.46 46.76 -1.11 46.52 C-12.97 44.94 -24.06 45.64 -34.19 52.5 C-44.49 61.03 -47.42 74.75 -48.77 87.44 C-49.19 92.16 -49.38 96.89 -49.56 101.62 C-49.63 103.28 -49.63 103.28 -49.69 104.96 C-50.18 118.97 -50.07 132.98 -50 147 C-57.28 147.02 -64.57 147.04 -71.85 147.05 C-75.23 147.06 -78.62 147.06 -82 147.08 C-85.88 147.09 -89.77 147.09 -93.65 147.1 C-94.87 147.1 -96.09 147.11 -97.35 147.11 C-99.03 147.11 -99.03 147.11 -100.75 147.11 C-101.74 147.12 -102.73 147.12 -103.75 147.12 C-106 147 -106 147 -107 146 C-107.7 134.5 -106.45 122.9 -105.56 111.44 C-103.56 85.29 -102.78 59.25 -102.47 33.04 C-102.42 28.62 -102.37 24.19 -102.31 19.76 C-102.28 17.71 -102.26 15.65 -102.24 13.6 C-102.22 12.36 -102.21 11.13 -102.19 9.86 C-102.18 8.77 -102.16 7.69 -102.15 6.57 C-102 4 -102 4 -101 2 C-93.63 1.95 -86.26 1.91 -78.89 1.89 C-76.38 1.88 -73.88 1.87 -71.37 1.85 C-67.77 1.82 -64.17 1.81 -60.57 1.8 C-59.44 1.79 -58.32 1.78 -57.15 1.77 C-56.11 1.77 -55.07 1.77 -54 1.77 C-53.08 1.77 -52.16 1.76 -51.21 1.76 C-49 2 -49 2 -47 4 C-46.8 6.38 -46.8 6.38 -46.88 9.12 C-46.89 10.04 -46.91 10.95 -46.93 11.88 C-46.95 12.58 -46.98 13.28 -47 14 C-44.02 14 -43.11 12.35 -41 10.31 C-30.77 1.06 -13.5 -6.41 0 0 Z " fill="#263092" transform="translate(874,557)"/>
<path d="M0 0 C0.33 0 0.66 0 1 0 C1.28 1.22 1.56 2.45 1.85 3.71 C9.71 37.14 24.76 64.97 45.12 92.37 C56.95 108.32 63.58 121.77 62 142 C60.44 150.49 56.76 156.68 51 163 C50.45 163.63 49.91 164.25 49.34 164.9 C40.65 174.29 28.96 179.55 16.25 180.12 C0.76 180.44 -10.44 176.11 -21.78 165.35 C-30.26 156.39 -35.54 144.26 -35.26 131.8 C-34.24 120.79 -30.45 111.38 -25.75 101.5 C-13 74.64 -7.21 47.15 -3.7 17.83 C-3.55 16.62 -3.55 16.62 -3.4 15.38 C-3.21 13.85 -3.03 12.33 -2.86 10.8 C-2.39 6.91 -1.66 3.56 0 0 Z " fill="#00ABE8" transform="translate(857,182)"/>
<path d="M0 0 C0.66 0 1.32 0 2 0 C3.04 1.57 4 3.18 4.94 4.81 C18.74 26.91 44.75 40.75 67.11 52.72 C71.59 55.11 76.03 57.55 80.42 60.11 C81.6 60.8 81.6 60.8 82.8 61.5 C88.93 65.68 93.84 72.09 95.55 79.35 C97.1 88.54 96.56 97.87 91.15 105.67 C85.45 112.48 79.36 116.21 71 119 C59.63 119.97 50.82 117.2 42 110 C16.27 87.11 4.92 37.89 0 5 C-0.03 3.33 -0.04 1.67 0 0 Z " fill="#00ABE9" transform="translate(884,165)"/>
<path d="M0 0 C14.87 28.01 15.77 75.1 9.29 105.3 C6.22 115.23 -1.32 122.62 -10 128 C-17.58 130.53 -29.53 130.54 -37 127.62 C-44.67 123.27 -52.41 116.74 -55.42 108.27 C-57.97 98.32 -57 88.82 -51.88 79.75 C-47.06 72.8 -40.18 68.02 -33.18 63.47 C-14.68 50.99 -6.78 31.3 -2.43 10.32 C-2.04 8.19 -1.71 6.08 -1.43 3.93 C-1 1 -1 1 0 0 Z " fill="#00ABE8" transform="translate(819,163)"/>
<path d="M0 0 C3.91 2.29 6.51 5.42 8.56 9.44 C9.56 13.44 9.56 13.44 9.56 24.44 C-5.29 24.44 -20.14 24.44 -35.44 24.44 C-36.85 18.8 -34.82 15.55 -32.44 10.44 C-31.94 9.37 -31.45 8.29 -30.94 7.19 C-23.13 -1.4 -10.79 -4.63 0 0 Z " fill="#FAFDFF" transform="translate(684.4375,590.5625)"/>
<path d="M0 0 C0.66 0.66 1.32 1.32 2 2 C2.52 1.67 3.03 1.34 3.56 1 C6.91 -0.37 9.41 -0.38 13 0 C16.18 2.49 18.77 5.31 19.34 9.42 C19.43 15.81 18.94 20.8 15 26 C11.73 28.97 9.29 30.23 4.94 30.38 C1 30 1 30 -4 28 C-4.99 31.96 -5.98 35.92 -7 40 C-9.31 40 -11.62 40 -14 40 C-13.47 31.27 -11.91 22.91 -10.06 14.38 C-9.8 13.1 -9.53 11.82 -9.26 10.5 C-9 9.29 -8.74 8.08 -8.47 6.84 C-8.12 5.19 -8.12 5.19 -7.76 3.51 C-7.51 2.68 -7.26 1.85 -7 1 C-4.49 -0.26 -2.78 -0.21 0 0 Z " fill="#00ABE9" transform="translate(409,747)"/>
<path d="M0 0 C3.22 2.43 4.77 4.66 7 8 C7.57 12.78 7.66 17.4 5.81 21.88 C-0.79 29.62 -0.79 29.62 -6.02 30.24 C-11.93 30.43 -15.22 29.54 -20 26 C-22.38 23.16 -22.94 21.42 -23.44 17.75 C-22.79 12.17 -21.36 7.4 -17.34 3.32 C-12.06 -0.51 -6.36 -1.27 0 0 Z " fill="#00ABE9" transform="translate(278,747)"/>
<path d="M0 0 C2.33 2.11 3.68 3.96 5 6.81 C5 8.13 5 9.45 5 10.81 C2.38 11.12 2.38 11.12 -1 10.81 C-2.45 9.54 -2.45 9.54 -3.94 8.25 C-6.85 5.38 -6.85 5.38 -10.88 6 C-11.91 6.27 -12.94 6.54 -14 6.81 C-14.33 8.13 -14.66 9.45 -15 10.81 C-13.95 11.33 -12.9 11.85 -11.82 12.39 C-10.44 13.09 -9.07 13.79 -7.69 14.5 C-7 14.84 -6.31 15.18 -5.6 15.53 C-1.44 17.68 1.09 19.34 3 23.81 C3.6 27.92 3.93 30.29 1.76 33.85 C-1.39 37.67 -3.48 39.55 -8.6 40.09 C-14.97 40.3 -19.88 39.89 -25.35 36.46 C-27.34 34.47 -27.7 33.26 -28.06 30.5 C-28.04 29.28 -28.02 28.07 -28 26.81 C-25.12 26.19 -25.12 26.19 -22 25.81 C-20 27.81 -20 27.81 -20 30.81 C-16.99 31.82 -14.96 31.92 -11.81 31.88 C-10.91 31.87 -10.01 31.86 -9.08 31.85 C-8.39 31.84 -7.71 31.82 -7 31.81 C-6.23 29.47 -6.23 29.47 -6 26.81 C-8.33 23.69 -11.61 22.39 -15.06 20.75 C-20.79 18.02 -20.79 18.02 -23 15.81 C-24.32 11.87 -24.09 9.34 -22.44 5.62 C-17.88 -2.42 -8.11 -3.21 0 0 Z " fill="#00ABE9" transform="translate(390,737.1875)"/>
<path d="M0 0 C1.04 0.01 2.07 0.02 3.14 0.03 C4.26 0.04 5.39 0.04 6.54 0.05 C7.72 0.07 8.89 0.08 10.1 0.1 C11.29 0.11 12.47 0.12 13.69 0.13 C16.62 0.15 19.55 0.19 22.48 0.23 C23.6 4.98 23.6 4.98 22.48 7.23 C16.54 7.56 10.6 7.89 4.48 8.23 C2.25 11.93 2.25 11.93 2.48 15.23 C3.62 15.29 4.76 15.35 5.94 15.41 C7.43 15.5 8.92 15.58 10.42 15.66 C11.55 15.72 11.55 15.72 12.7 15.78 C18.36 16.11 18.36 16.11 19.48 17.23 C19.6 19.73 19.6 19.73 19.48 22.23 C17.93 23.78 16.38 23.44 14.22 23.54 C13.37 23.59 12.52 23.63 11.64 23.67 C10.29 23.73 10.29 23.73 8.92 23.79 C8.01 23.83 7.11 23.88 6.18 23.92 C3.95 24.03 1.71 24.13 -0.52 24.23 C-1.51 29.51 -2.5 34.79 -3.52 40.23 C-6.16 40.23 -8.8 40.23 -11.52 40.23 C-13.16 36.96 -11.71 33.66 -10.94 30.23 C-10.68 29.04 -10.68 29.04 -10.41 27.83 C-10.04 26.15 -9.67 24.48 -9.29 22.81 C-8.71 20.24 -8.15 17.67 -7.59 15.1 C-7.23 13.48 -6.87 11.85 -6.5 10.23 C-6.33 9.46 -6.17 8.69 -5.99 7.89 C-4.28 0.39 -4.28 0.39 0 0 Z " fill="#00ABE9" transform="translate(561.52197265625,735.77294921875)"/>
<path d="M0 0 C3.93 2.34 4.92 3.84 7 8 C7 10.97 7 13.94 7 17 C0.4 17.33 -6.2 17.66 -13 18 C-12.01 19.65 -11.02 21.3 -10 23 C-7.96 23.6 -7.96 23.6 -5.81 23.31 C-4.55 23.21 -3.3 23.11 -2 23 C-2 22.34 -2 21.68 -2 21 C0.31 21.33 2.62 21.66 5 22 C3.49 25.85 1.55 27.88 -2 30 C-6.6 30.86 -10.68 30.49 -14.88 28.38 C-18.41 25.69 -19.72 24.24 -21 20 C-21.39 13.36 -19.33 8 -15 3 C-10.39 -0.35 -5.54 -0.93 0 0 Z " fill="#00ABE8" transform="translate(177,747)"/>
<path d="M0 0 C2.06 2.06 1.41 6.22 1.56 9.06 C1.61 9.82 1.65 10.58 1.69 11.36 C1.8 13.24 1.9 15.12 2 17 C2.99 17 3.98 17 5 17 C5.24 16.49 5.48 15.98 5.73 15.46 C6.84 13.15 7.98 10.85 9.12 8.56 C9.5 7.76 9.88 6.96 10.27 6.13 C13.23 0.29 13.23 0.29 17.12 -1.16 C20 -1 20 -1 23 1 C22.32 2.06 21.64 3.12 20.94 4.21 C16.7 10.99 12.93 18.05 9.08 25.06 C8.49 26.14 7.89 27.22 7.28 28.32 C6.74 29.29 6.21 30.26 5.66 31.26 C1.39 38.31 1.39 38.31 -2 40 C-4.69 40.19 -7.3 40.09 -10 40 C-11 39 -11 39 -11.06 36.44 C-11.04 35.63 -11.02 34.83 -11 34 C-10.03 33.69 -9.06 33.38 -8.06 33.06 C-5.16 32.3 -5.16 32.3 -4 31 C-3.74 25.24 -4.37 20.02 -5.5 14.38 C-6.46 9.5 -7.19 5 -7 0 C-4.32 -1.34 -2.85 -0.73 0 0 Z " fill="#00ABE9" transform="translate(609,748)"/>
<path d="M0 0 C2.75 -0.38 2.75 -0.38 6 0 C9.13 3.68 11.06 8 13.07 12.36 C13.9 14.18 13.9 14.18 16 15 C16.96 13.5 16.96 13.5 17.94 11.97 C18.81 10.67 19.69 9.37 20.56 8.06 C20.98 7.4 21.4 6.74 21.83 6.06 C24.27 2.48 25.34 1.19 29.65 -0.07 C33 0 33 0 36 2 C35.63 2.42 35.26 2.84 34.89 3.27 C25.05 14.57 17.69 25.05 15 40 C12.36 40 9.72 40 7 40 C7.18 38.99 7.35 37.99 7.54 36.95 C9.22 24.61 5.92 16.55 -0.27 5.93 C-1.17 3.56 -0.83 2.35 0 0 Z " fill="#00ABE8" transform="translate(225,736)"/>
<path d="M0 0 C1.06 3.19 0.96 4.05 0.19 7.2 C-0 7.99 -0.19 8.79 -0.38 9.61 C-0.59 10.44 -0.79 11.27 -1 12.12 C-1.4 13.77 -1.8 15.42 -2.19 17.07 C-2.37 17.8 -2.55 18.53 -2.73 19.28 C-2.86 20.13 -2.86 20.13 -3 21 C-1.95 22.25 -1.95 22.25 0.38 22.38 C3.15 22.29 3.15 22.29 4.54 19.99 C6.33 16.33 7.19 12.77 8.06 8.81 C9.74 1.26 9.74 1.26 12 -1 C15.12 -0.62 15.12 -0.62 18 0 C16.77 9.6 14.65 18.72 12 28 C8.67 28 5.33 28 2 28 C1.34 28.33 0.68 28.66 0 29 C-4.18 29.47 -6.38 29.35 -10.06 27.25 C-13.16 22.05 -11.4 17.66 -10 12 C-9.75 10.87 -9.5 9.75 -9.25 8.59 C-7.87 2.56 -7.87 2.56 -7 0 C-4.33 -1.33 -2.83 -0.67 0 0 Z " fill="#00ABE9" transform="translate(301,748)"/>
<path d="M0 0 C3.41 2.53 4.67 4 6 8 C-0.62 8.25 -0.62 8.25 -4 6 C-6.33 5.92 -8.67 5.91 -11 6 C-11 6.99 -11 7.98 -11 9 C-10.4 9.19 -9.79 9.39 -9.17 9.59 C-8.37 9.85 -7.57 10.11 -6.75 10.38 C-5.96 10.63 -5.17 10.89 -4.36 11.15 C1.46 13.25 1.46 13.25 3.25 15.75 C4.25 18.74 4.38 20.87 4 24 C1.85 27.34 0.8 28.73 -3 30 C-10.1 30.69 -15.29 30.47 -21 26 C-21.94 23.75 -21.94 23.75 -22 22 C-19.25 20.81 -19.25 20.81 -16 20 C-14.64 20.96 -13.31 21.97 -12 23 C-8.33 23.25 -8.33 23.25 -5 23 C-6.03 20.24 -6.74 19.16 -9.31 17.62 C-10.2 17.23 -11.09 16.84 -12 16.44 C-16.79 14.31 -16.79 14.31 -19 11 C-18.94 8.06 -18.94 8.06 -18 5 C-12.43 -0.28 -7.51 -0.99 0 0 Z " fill="#00ABE9" transform="translate(525,747)"/>
<path d="M0 0 C1.14 0.12 1.14 0.12 2.31 0.25 C3.33 4.15 3.2 6.9 2.32 10.81 C2.09 11.86 1.86 12.9 1.62 13.98 C1.38 15.06 1.13 16.14 0.88 17.25 C0.39 19.39 -0.09 21.54 -0.56 23.69 C-0.77 24.63 -0.99 25.58 -1.21 26.56 C-1.68 29.19 -1.77 31.59 -1.69 34.25 C0.14 34.23 0.14 34.23 2 34.21 C3.58 34.21 5.17 34.2 6.75 34.19 C7.55 34.18 8.35 34.17 9.18 34.16 C11.23 34.15 13.27 34.2 15.31 34.25 C16.31 35.25 16.31 35.25 16.31 40.25 C7.07 40.25 -2.17 40.25 -11.69 40.25 C-13.26 37.1 -12.04 34.08 -11.36 30.76 C-11.21 30.02 -11.06 29.27 -10.91 28.51 C-10.59 26.94 -10.26 25.36 -9.94 23.79 C-9.44 21.39 -8.96 18.99 -8.49 16.59 C-8.18 15.06 -7.86 13.53 -7.55 12.01 C-7.41 11.29 -7.27 10.57 -7.12 9.84 C-5.13 0.48 -5.13 0.48 0 0 Z " fill="#00ABE9" transform="translate(134.6875,735.75)"/>
<path d="M0 0 C1.33 2.67 0.67 4.17 0 7 C0.99 7.66 1.98 8.32 3 9 C3.19 11.62 3.19 11.62 3 14 C1.35 14.33 -0.3 14.66 -2 15 C-2.99 19.95 -3.98 24.9 -5 30 C-3.68 30.99 -2.36 31.98 -1 33 C-1.5 35.48 -1.5 35.48 -2 38 C-8.33 38.5 -8.33 38.5 -11.74 35.98 C-12.48 35.33 -13.23 34.67 -14 34 C-13.76 32.72 -13.52 31.45 -13.27 30.13 C-12.97 28.46 -12.67 26.79 -12.38 25.12 C-12.14 23.86 -12.14 23.86 -11.89 22.57 C-11.75 21.77 -11.61 20.96 -11.46 20.13 C-11.32 19.39 -11.19 18.65 -11.05 17.88 C-11.03 17.26 -11.02 16.64 -11 16 C-11.66 15.34 -12.32 14.68 -13 14 C-13.12 11.38 -13.12 11.38 -13 9 C-12.38 8.75 -11.76 8.5 -11.12 8.25 C-8.86 7.2 -8.86 7.2 -8.19 5.06 C-6.3 1.79 -3.48 1.29 0 0 Z " fill="#00ABE8" transform="translate(500,739)"/>
<path d="M0 0 C-0.06 0.93 -0.12 1.86 -0.19 2.81 C0.03 6.46 0.53 6.64 3 9 C2.69 11.19 2.69 11.19 2 13 C0.35 13.33 -1.3 13.66 -3 14 C-3.13 14.9 -3.27 15.81 -3.4 16.74 C-3.58 17.92 -3.76 19.1 -3.94 20.31 C-4.11 21.48 -4.29 22.66 -4.46 23.86 C-5 27 -5 27 -6 30 C-5.36 30.27 -4.72 30.54 -4.06 30.81 C-2 32 -2 32 -1 35 C-1.33 35.66 -1.66 36.32 -2 37 C-9.16 37.36 -9.16 37.36 -12.5 35.94 C-14.25 33.68 -14.49 32.15 -14.34 29.32 C-13.58 24.14 -12.28 19.07 -11 14 C-11.66 14 -12.32 14 -13 14 C-13.62 11.62 -13.62 11.62 -14 9 C-13.34 8.34 -12.68 7.68 -12 7 C-11.01 7 -10.02 7 -9 7 C-8.73 6.22 -8.46 5.43 -8.19 4.62 C-6.26 0.36 -4.59 0 0 0 Z " fill="#00ABE9" transform="translate(203,740)"/>
<path d="M0 0 C1.61 3.21 0.3 6.39 -0.4 9.78 C-0.63 10.94 -0.63 10.94 -0.87 12.11 C-1.19 13.74 -1.53 15.37 -1.86 16.99 C-2.37 19.49 -2.87 21.98 -3.38 24.48 C-3.69 26.06 -4.02 27.64 -4.34 29.22 C-4.49 29.97 -4.64 30.72 -4.79 31.49 C-5.88 36.77 -5.88 36.77 -7 39 C-9.31 39 -11.62 39 -14 39 C-15.58 35.84 -14.31 32.8 -13.6 29.47 C-13.45 28.73 -13.29 27.98 -13.13 27.22 C-12.81 25.64 -12.47 24.06 -12.14 22.49 C-11.63 20.08 -11.13 17.66 -10.62 15.25 C-10.31 13.72 -9.98 12.19 -9.66 10.66 C-9.51 9.94 -9.36 9.22 -9.21 8.47 C-8.59 5.58 -7.93 2.8 -7 0 C-4.3 -1.35 -2.85 -0.8 0 0 Z " fill="#00ABE9" transform="translate(598,737)"/>
<path d="M0 0 C0 1.32 0 2.64 0 4 C0.72 3.15 1.44 2.31 2.19 1.44 C5 -1 5 -1 7.81 -0.81 C8.53 -0.54 9.26 -0.28 10 0 C9.67 1.65 9.34 3.3 9 5 C8.39 5.11 7.77 5.22 7.14 5.34 C2.26 6.45 2.26 6.45 -1.16 9.82 C-1.94 12.19 -2.49 14.55 -3 17 C-3.55 19.02 -4.12 21.04 -4.69 23.06 C-5.13 24.71 -5.57 26.35 -6 28 C-8.31 28 -10.62 28 -13 28 C-12.57 21.34 -11.47 14.95 -10.06 8.44 C-9.89 7.63 -9.72 6.82 -9.55 5.98 C-9.1 3.97 -8.56 1.98 -8 0 C-5.14 -1.43 -3.07 -0.6 0 0 Z " fill="#00ABE9" transform="translate(460,748)"/>
<path d="M0 0 C3.06 0.25 3.06 0.25 6 1 C6.33 1.66 6.66 2.32 7 3 C7.56 2.48 8.11 1.97 8.69 1.44 C11 0 11 0 13.75 0.31 C14.86 0.65 14.86 0.65 16 1 C15.67 2.65 15.34 4.3 15 6 C14.08 6.15 14.08 6.15 13.14 6.3 C10.46 6.93 8.37 7.6 6 9 C4.2 12.17 3.63 15.43 3 19 C2.63 20.69 2.26 22.38 1.88 24.06 C1.73 24.8 1.58 25.53 1.43 26.29 C1 28 1 28 0 29 C-2 29.04 -4 29.04 -6 29 C-7.15 25.56 -6.84 23.16 -6.07 19.65 C-5.85 18.63 -5.63 17.62 -5.41 16.57 C-5.17 15.52 -4.93 14.46 -4.69 13.38 C-4.46 12.31 -4.24 11.25 -4 10.16 C-2.26 2.26 -2.26 2.26 0 0 Z " fill="#00ABE9" transform="translate(330,747)"/>
<path d="M0 0 C1.14 0.34 1.14 0.34 2.31 0.69 C1.08 21.16 1.08 21.16 -2.69 28.69 C-5 28.69 -7.31 28.69 -9.69 28.69 C-11.72 24.62 -9.34 19.05 -8.44 14.75 C-8.22 13.64 -8 12.53 -7.78 11.38 C-7.56 10.32 -7.34 9.26 -7.11 8.16 C-6.91 7.18 -6.71 6.21 -6.5 5.2 C-5.27 1.39 -4.15 -0.48 0 0 Z " fill="#00ABE9" transform="translate(478.6875,747.3125)"/>
<path d="M0 0 C2.44 0.19 2.44 0.19 3.44 1.19 C2.98 10.73 0.61 19.92 -1.56 29.19 C-3.87 29.19 -6.18 29.19 -8.56 29.19 C-9.71 25.75 -9.4 23.35 -8.64 19.84 C-8.42 18.82 -8.2 17.8 -7.97 16.76 C-7.73 15.7 -7.5 14.65 -7.25 13.56 C-7.02 12.5 -6.8 11.44 -6.56 10.34 C-4.35 0.32 -4.35 0.32 0 0 Z " fill="#00ABE9" transform="translate(441.5625,746.8125)"/>
<path d="M0 0 C2.71 4.06 2.52 7.24 2 12 C0.94 15 0.94 15 -1 17 C-4.44 18.06 -4.44 18.06 -8 18 C-10.5 16.56 -10.5 16.56 -12 14 C-11.92 8.9 -11.32 5.04 -8 1 C-4.65 -0.84 -3.69 -1.23 0 0 Z " fill="#FAFDFF" transform="translate(275,753)"/>
<path d="M0 0 C1.75 1.31 1.75 1.31 2.75 3.31 C3.27 8.17 3.41 12.09 1.06 16.44 C-1.25 18.31 -1.25 18.31 -3.75 18.88 C-7.09 18.12 -8.27 17.1 -10.25 14.31 C-10.98 9.53 -9.85 6.34 -7.25 2.31 C-3.23 -0.99 -3.23 -0.99 0 0 Z " fill="#FAFDFF" transform="translate(417.25,752.6875)"/>
<path d="M0 0 C1.41 2.81 0.59 4.8 -0.22 7.72 C-3.74 17.98 -10.9 25.7 -20.17 31.17 C-22.53 32.24 -24.44 32.4 -27 32 C-27.33 31.34 -27.66 30.68 -28 30 C-27.35 29.62 -26.7 29.25 -26.02 28.86 C-14.94 22.37 -9.32 15.91 -3.75 4.44 C-2 1 -2 1 0 0 Z " fill="#96D5E4" transform="translate(914,319)"/>
<path d="M0 0 C2.5 0.12 2.5 0.12 3.5 1.12 C3.64 5.82 3.12 9.92 0.19 13.69 C-2.5 16.12 -2.5 16.12 -6.5 16.12 C-6.5 13.12 -6.5 13.12 -4.5 10.94 C-3.51 10.04 -3.51 10.04 -2.5 9.12 C-3.16 9.12 -3.82 9.12 -4.5 9.12 C-5.71 5.49 -5.09 4.49 -3.5 1.12 C-2.5 0.12 -2.5 0.12 0 0 Z " fill="#00ABE9" transform="translate(654.5,735.875)"/>
<path d="M0 0 C3.12 0.38 3.12 0.38 6 1 C5.47 7.3 4.62 11.38 0 16 C-1.32 16 -2.64 16 -4 16 C-4 13 -4 13 -2 10.81 C-1.01 9.92 -1.01 9.92 0 9 C-0.66 9 -1.32 9 -2 9 C-2.12 5.62 -2.12 5.62 -2 2 C-1.34 1.34 -0.68 0.68 0 0 Z " fill="#00ABE9" transform="translate(639,736)"/>
<path d="M0 0 C2.62 0.38 2.62 0.38 5 1 C4.01 2.49 4.01 2.49 3 4 C2.34 4 1.68 4 1 4 C1 5.32 1 6.64 1 8 C1.66 8.33 2.32 8.66 3 9 C2.67 10.98 2.34 12.96 2 15 C-0.31 15 -2.62 15 -5 15 C-6.22 11.34 -5.64 10.42 -4.19 6.94 C-3.83 6.06 -3.47 5.18 -3.11 4.28 C-2 2 -2 2 0 0 Z " fill="#00ABE9" transform="translate(117,737)"/>
<path d="M0 0 C2.62 0.38 2.62 0.38 5 1 C4.01 2.49 4.01 2.49 3 4 C2.34 4 1.68 4 1 4 C1.66 7.61 1.66 7.61 3 11 C2.56 13.12 2.56 13.12 2 15 C-0.31 15 -2.62 15 -5 15 C-5.89 12.51 -6.08 11.27 -5.29 8.71 C-4.93 7.94 -4.56 7.17 -4.19 6.38 C-3.83 5.6 -3.47 4.82 -3.11 4.02 C-2 2 -2 2 0 0 Z " fill="#00ABE9" transform="translate(104,737)"/>
<path d="M0 0 C2 3 2 3 2 6 C-1.63 6 -5.26 6 -9 6 C-8 1 -8 1 -6.19 -0.38 C-3.62 -1.11 -2.44 -1.06 0 0 Z " fill="#FAFDFF" transform="translate(175,753)"/>
<path d="M0 0 C1.14 0.34 1.14 0.34 2.31 0.69 C3.31 3.69 3.31 3.69 2.38 5.88 C1.85 6.77 1.85 6.77 1.31 7.69 C-0.67 7.69 -2.65 7.69 -4.69 7.69 C-5.38 5.38 -5.38 5.38 -5.69 2.69 C-4 -0.12 -3.28 -0.38 0 0 Z " fill="#00ABE9" transform="translate(444.6875,736.3125)"/>
<path d="M0 0 C0.69 1.81 0.69 1.81 1 4 C-0.12 5.75 -0.12 5.75 -2 7 C-4.69 7.19 -4.69 7.19 -7 7 C-7.93 3.99 -8.04 3.13 -7 0 C-4.33 -1.33 -2.83 -0.67 0 0 Z " fill="#00ABE9" transform="translate(483,737)"/>
<path d="M0 0 C0.33 0 0.66 0 1 0 C1.38 6.21 0.36 10.95 -3.5 15.94 C-5 17 -5 17 -8 17 C-7 15 -7 15 -5 14 C-2.85 10.29 -2 8.36 -2 4 C-1.34 4 -0.68 4 0 4 C0 2.68 0 1.36 0 0 Z " fill="#AFDFEA" transform="translate(975,257)"/>
<path d="M0 0 C0.66 0.66 1.32 1.32 2 2 C-1.36 4.96 -4.69 5.92 -9 7 C-9.33 6.01 -9.66 5.02 -10 4 C-9.36 3.8 -8.72 3.59 -8.07 3.38 C-7.24 3.11 -6.41 2.84 -5.56 2.56 C-4.74 2.3 -3.92 2.03 -3.07 1.75 C-1.04 1.18 -1.04 1.18 0 0 Z " fill="#A7DBE8" transform="translate(815,281)"/>
</svg>
